<?xml version="1.0" encoding="UTF-8" standalone="no"?>
<!DOCTYPE svg PUBLIC "-//W3C//DTD SVG 1.1//EN"
 "http://www.w3.org/Graphics/SVG/1.1/DTD/svg11.dtd">
<!-- Generated by graphviz version 2.50.0 (20211209.1537)
 -->
<!-- Title: g Pages: 1 -->
<svg width="1315pt" height="1972pt"
 viewBox="0.00 0.00 1315.27 1972.00" xmlns="http://www.w3.org/2000/svg" xmlns:xlink="http://www.w3.org/1999/xlink">
<g id="graph0" class="graph" transform="scale(1 1) rotate(0) translate(4 1968)">
<title>g</title>
<g id="node1" class="node">
<title></title>
<g id="a_node1"><a xlink:href="https://mighdoll-site-origami.netlify.app/.">
<ellipse fill="white" stroke="#666666" cx="5.5" cy="-782" rx="5.5" ry="5.5"/>
</a>
</g>
</g>
<!-- blog -->
<g id="node2" class="node">
<title>blog</title>
<g id="a_node2"><a xlink:href="https://mighdoll-site-origami.netlify.app/blog">
<ellipse fill="white" stroke="#666666" cx="277.1" cy="-1568" rx="5.5" ry="5.5"/>
</a>
</g>
</g>
<!-- &#45;&gt;blog -->
<g id="edge1" class="edge">
<title>&#45;&gt;blog</title>
<path fill="none" stroke="#999999" d="M6.95,-787.57C9.63,-819.69 24.88,-984.33 65,-1112 123.59,-1298.44 241.29,-1507.76 269.78,-1557.16"/>
<polygon fill="#999999" stroke="#999999" points="273.57,-1563.68 266.89,-1558.89 271.69,-1560.44 269.81,-1557.19 269.81,-1557.19 269.81,-1557.19 271.69,-1560.44 272.73,-1555.5 273.57,-1563.68 273.57,-1563.68"/>
<text text-anchor="middle" x="90.58" y="-1244" font-family="Helvetica,sans-Serif" font-size="10.00">blog</text>
</g>
<!-- index.html -->
<g id="node10" class="node">
<title>index.html</title>
<g id="a_node10"><a xlink:href="https://mighdoll-site-origami.netlify.app/index.html" xlink:title="&lt;!DOCTYPE html&gt;\l&lt;html lang=&quot;en&quot;&gt;\l \l &lt;h...\l">
<polygon fill="white" stroke="#b3b3b3" points="327.57,-1211 226.63,-1211 226.63,-1155 327.57,-1155 327.57,-1211"/>
<text text-anchor="start" x="234.87" y="-1198" font-family="Helvetica,sans-Serif" font-size="10.00">&lt;!DOCTYPE html&gt;</text>
<text text-anchor="start" x="234.87" y="-1186" font-family="Helvetica,sans-Serif" font-size="10.00">&lt;html lang=&quot;en&quot;&gt;</text>
<text text-anchor="start" x="234.87" y="-1174" font-family="Helvetica,sans-Serif" font-size="10.00"> </text>
<text text-anchor="start" x="234.87" y="-1162" font-family="Helvetica,sans-Serif" font-size="10.00"> &lt;h...</text>
</a>
</g>
</g>
<!-- &#45;&gt;index.html -->
<g id="edge9" class="edge">
<title>&#45;&gt;index.html</title>
<path fill="none" stroke="#999999" d="M6.71,-787.65C7.96,-815.21 16.17,-937.72 65,-1021 101.04,-1082.47 170.29,-1128.68 219.64,-1155.7"/>
<polygon fill="#999999" stroke="#999999" points="226.47,-1159.38 218.27,-1158.79 223.17,-1157.6 219.87,-1155.82 219.87,-1155.82 219.87,-1155.82 223.17,-1157.6 221.47,-1152.85 226.47,-1159.38 226.47,-1159.38"/>
<text text-anchor="middle" x="90.58" y="-1085" font-family="Helvetica,sans-Serif" font-size="10.00">index.html</text>
</g>
<!-- open&#45;graph -->
<g id="node11" class="node">
<title>open&#45;graph</title>
<g id="a_node11"><a xlink:href="https://mighdoll-site-origami.netlify.app/open-graph">
<ellipse fill="white" stroke="#666666" cx="277.1" cy="-1077" rx="5.5" ry="5.5"/>
</a>
</g>
</g>
<!-- &#45;&gt;open&#45;graph -->
<g id="edge10" class="edge">
<title>&#45;&gt;open&#45;graph</title>
<path fill="none" stroke="#999999" d="M7.93,-787.15C13.34,-806.15 33.88,-873.73 65,-922 102.17,-979.66 113.51,-996.3 170.15,-1035 200.74,-1055.9 243.27,-1068.7 263.9,-1074.06"/>
<polygon fill="#999999" stroke="#999999" points="271.31,-1075.91 263.21,-1077.37 267.67,-1075 264.03,-1074.09 264.03,-1074.09 264.03,-1074.09 267.67,-1075 264.85,-1070.82 271.31,-1075.91 271.31,-1075.91"/>
<text text-anchor="middle" x="90.58" y="-994" font-family="Helvetica,sans-Serif" font-size="10.00">open&#45;graph</text>
</g>
<!-- favicon.svg -->
<g id="node19" class="node">
<title>favicon.svg</title>
<g id="a_node19"><a xlink:href="https://mighdoll-site-origami.netlify.app/favicon.svg" xlink:title="&lt;?xml version=&quot;1.0&quot; encoding=&quot;UTF&#45;8&quot; sta...\l">
<polygon fill="white" stroke="#b3b3b3" points="384,-999 170.2,-999 170.2,-963 384,-963 384,-999"/>
<text text-anchor="start" x="178.15" y="-978" font-family="Helvetica,sans-Serif" font-size="10.00">&lt;?xml version=&quot;1.0&quot; encoding=&quot;UTF&#45;8&quot; sta...</text>
</a>
</g>
</g>
<!-- &#45;&gt;favicon.svg -->
<g id="edge18" class="edge">
<title>&#45;&gt;favicon.svg</title>
<path fill="none" stroke="#999999" d="M9.37,-786.03C17.39,-797.13 41.02,-828.81 65,-851 107.32,-890.17 120.95,-896.93 170.15,-927 189.29,-938.7 211.27,-950.19 230.23,-959.55"/>
<polygon fill="#999999" stroke="#999999" points="237.07,-962.9 228.85,-962.63 233.7,-961.25 230.33,-959.6 230.33,-959.6 230.33,-959.6 233.7,-961.25 231.82,-956.57 237.07,-962.9 237.07,-962.9"/>
<text text-anchor="middle" x="90.58" y="-895" font-family="Helvetica,sans-Serif" font-size="10.00">favicon.svg</text>
</g>
<!-- fonts -->
<g id="node20" class="node">
<title>fonts</title>
<g id="a_node20"><a xlink:href="https://mighdoll-site-origami.netlify.app/fonts">
<ellipse fill="white" stroke="#666666" cx="277.1" cy="-885" rx="5.5" ry="5.5"/>
</a>
</g>
</g>
<!-- &#45;&gt;fonts -->
<g id="edge19" class="edge">
<title>&#45;&gt;fonts</title>
<path fill="none" stroke="#999999" d="M11.18,-783.79C42.12,-795.61 217.43,-862.58 264.48,-880.56"/>
<polygon fill="#999999" stroke="#999999" points="271.71,-883.32 263.5,-883.8 268.21,-881.98 264.7,-880.65 264.7,-880.65 264.7,-880.65 268.21,-881.98 265.91,-877.49 271.71,-883.32 271.71,-883.32"/>
<text text-anchor="middle" x="90.58" y="-824" font-family="Helvetica,sans-Serif" font-size="10.00">fonts</text>
</g>
<!-- images -->
<g id="node24" class="node">
<title>images</title>
<g id="a_node24"><a xlink:href="https://mighdoll-site-origami.netlify.app/images">
<ellipse fill="white" stroke="#666666" cx="277.1" cy="-782" rx="5.5" ry="5.5"/>
</a>
</g>
</g>
<!-- &#45;&gt;images -->
<g id="edge23" class="edge">
<title>&#45;&gt;images</title>
<path fill="none" stroke="#999999" d="M11.05,-781.79C20.89,-781.35 44.88,-780.34 65,-780 140.38,-778.71 230.91,-780.78 263.58,-781.65"/>
<polygon fill="#999999" stroke="#999999" points="271.5,-781.87 263.91,-785.03 267.75,-781.76 264,-781.66 264,-781.66 264,-781.66 267.75,-781.76 264.09,-778.29 271.5,-781.87 271.5,-781.87"/>
<text text-anchor="middle" x="90.58" y="-783" font-family="Helvetica,sans-Serif" font-size="10.00">images</text>
</g>
<!-- logo4.jpg -->
<g id="node28" class="node">
<title>logo4.jpg</title>
<g id="a_node28"><a xlink:href="https://mighdoll-site-origami.netlify.app/logo4.jpg" xlink:title="[binary data]">
<polygon fill="white" stroke="#b3b3b3" points="312.64,-704 241.57,-704 241.57,-668 312.64,-668 312.64,-704"/>
<text text-anchor="middle" x="277.1" y="-683" font-family="Helvetica,sans-Serif" font-size="10.00">[binary data]</text>
</a>
</g>
</g>
<!-- &#45;&gt;logo4.jpg -->
<g id="edge27" class="edge">
<title>&#45;&gt;logo4.jpg</title>
<path fill="none" stroke="#999999" d="M10.59,-779.26C19.9,-773.13 43.54,-758.12 65,-749 121.62,-724.94 190.42,-706.25 233.75,-695.67"/>
<polygon fill="#999999" stroke="#999999" points="241.27,-693.85 234.77,-698.9 237.63,-694.73 233.98,-695.61 233.98,-695.61 233.98,-695.61 237.63,-694.73 233.19,-692.33 241.27,-693.85 241.27,-693.85"/>
<text text-anchor="middle" x="90.58" y="-752" font-family="Helvetica,sans-Serif" font-size="10.00">logo4.jpg</text>
</g>
<!-- robots.txt -->
<g id="node29" class="node">
<title>robots.txt</title>
<g id="a_node29"><a xlink:href="https://mighdoll-site-origami.netlify.app/robots.txt" xlink:title="User&#45;agent: Applebot\lAllow: /\l\lUser&#45;agen...\l">
<polygon fill="white" stroke="#b3b3b3" points="332.11,-596 222.1,-596 222.1,-540 332.11,-540 332.11,-596"/>
<text text-anchor="start" x="229.85" y="-583" font-family="Helvetica,sans-Serif" font-size="10.00">User&#45;agent: Applebot</text>
<text text-anchor="start" x="229.85" y="-571" font-family="Helvetica,sans-Serif" font-size="10.00">Allow: /</text>
<text text-anchor="start" x="229.85" y="-547" font-family="Helvetica,sans-Serif" font-size="10.00">User&#45;agen...</text>
</a>
</g>
</g>
<!-- &#45;&gt;robots.txt -->
<g id="edge28" class="edge">
<title>&#45;&gt;robots.txt</title>
<path fill="none" stroke="#999999" d="M8.89,-777.4C16.01,-764.04 38.22,-724.56 65,-699 109.67,-656.37 170.39,-620.45 215.24,-597.07"/>
<polygon fill="#999999" stroke="#999999" points="222.02,-593.57 216.91,-600.01 218.69,-595.29 215.36,-597.01 215.36,-597.01 215.36,-597.01 218.69,-595.29 213.81,-594.02 222.02,-593.57 222.02,-593.57"/>
<text text-anchor="middle" x="90.58" y="-702" font-family="Helvetica,sans-Serif" font-size="10.00">robots.txt</text>
</g>
<!-- styles -->
<g id="node30" class="node">
<title>styles</title>
<g id="a_node30"><a xlink:href="https://mighdoll-site-origami.netlify.app/styles">
<ellipse fill="white" stroke="#666666" cx="277.1" cy="-402" rx="5.5" ry="5.5"/>
</a>
</g>
</g>
<!-- &#45;&gt;styles -->
<g id="edge29" class="edge">
<title>&#45;&gt;styles</title>
<path fill="none" stroke="#999999" d="M7.85,-776.74C13.12,-756.67 33.62,-683.38 65,-630 123.96,-529.71 233.39,-436.59 266.42,-409.73"/>
<polygon fill="#999999" stroke="#999999" points="272.26,-405.02 268.54,-412.36 269.34,-407.38 266.42,-409.73 266.42,-409.73 266.42,-409.73 269.34,-407.38 264.3,-407.1 272.26,-405.02 272.26,-405.02"/>
<text text-anchor="middle" x="90.58" y="-633" font-family="Helvetica,sans-Serif" font-size="10.00">styles</text>
</g>
<!-- svg -->
<g id="node34" class="node">
<title>svg</title>
<g id="a_node34"><a xlink:href="https://mighdoll-site-origami.netlify.app/svg">
<ellipse fill="white" stroke="#666666" cx="277.1" cy="-195" rx="5.5" ry="5.5"/>
</a>
</g>
</g>
<!-- &#45;&gt;svg -->
<g id="edge33" class="edge">
<title>&#45;&gt;svg</title>
<path fill="none" stroke="#999999" d="M7.08,-776.66C10.17,-749.48 26.02,-624.21 65,-530 98.82,-448.26 122.99,-435.84 170.15,-361 207.15,-302.29 252.08,-232.33 269.11,-205.86"/>
<polygon fill="#999999" stroke="#999999" points="273.3,-199.35 272.08,-207.48 271.27,-202.5 269.24,-205.66 269.24,-205.66 269.24,-205.66 271.27,-202.5 266.4,-203.83 273.3,-199.35 273.3,-199.35"/>
<text text-anchor="middle" x="90.58" y="-533" font-family="Helvetica,sans-Serif" font-size="10.00">svg</text>
</g>
<!-- rss.xml -->
<g id="node37" class="node">
<title>rss.xml</title>
<g id="a_node37"><a xlink:href="https://mighdoll-site-origami.netlify.app/rss.xml" xlink:title="&lt;?xml version=&quot;1.0&quot; ?&gt;\l&lt;rss version=&quot;2.0...\l">
<polygon fill="white" stroke="#b3b3b3" points="336.59,-117 217.61,-117 217.61,-81 336.59,-81 336.59,-117"/>
<text text-anchor="start" x="225.61" y="-102" font-family="Helvetica,sans-Serif" font-size="10.00">&lt;?xml version=&quot;1.0&quot; ?&gt;</text>
<text text-anchor="start" x="225.61" y="-90" font-family="Helvetica,sans-Serif" font-size="10.00">&lt;rss version=&quot;2.0...</text>
</a>
</g>
</g>
<!-- &#45;&gt;rss.xml -->
<g id="edge36" class="edge">
<title>&#45;&gt;rss.xml</title>
<path fill="none" stroke="#999999" d="M6.87,-776.66C9.29,-742.91 24.13,-556.06 65,-410 98.15,-291.55 87.14,-244.76 170.15,-154 183,-139.95 200.28,-128.9 217.14,-120.51"/>
<polygon fill="#999999" stroke="#999999" points="224.33,-117.07 219.02,-123.35 220.95,-118.69 217.57,-120.31 217.57,-120.31 217.57,-120.31 220.95,-118.69 216.11,-117.26 224.33,-117.07 224.33,-117.07"/>
<text text-anchor="middle" x="90.58" y="-413" font-family="Helvetica,sans-Serif" font-size="10.00">rss.xml</text>
</g>
<!-- blog/index.html -->
<g id="node3" class="node">
<title>blog/index.html</title>
<g id="a_node3"><a xlink:href="https://mighdoll-site-origami.netlify.app/blog/index.html" xlink:title="...&lt;title&gt;Mighdoll Blog&lt;/title&gt;\l &lt;meta n...\l">
<polygon fill="white" stroke="#b3b3b3" points="917.78,-1964 776.51,-1964 776.51,-1928 917.78,-1928 917.78,-1964"/>
<text text-anchor="start" x="784.33" y="-1949" font-family="Helvetica,sans-Serif" font-size="10.00">...&lt;title&gt;Mighdoll Blog&lt;/title&gt;</text>
<text text-anchor="start" x="784.33" y="-1937" font-family="Helvetica,sans-Serif" font-size="10.00"> &lt;meta n...</text>
</a>
</g>
</g>
<!-- blog&#45;&gt;blog/index.html -->
<g id="edge2" class="edge">
<title>blog&#45;&gt;blog/index.html</title>
<path fill="none" stroke="#999999" d="M279.46,-1573.18C287.85,-1604.25 335.84,-1767.06 438.05,-1844 535.85,-1917.61 680.53,-1938.56 768.77,-1944.24"/>
<polygon fill="#999999" stroke="#999999" points="776.34,-1944.7 768.65,-1947.62 772.6,-1944.48 768.86,-1944.25 768.86,-1944.25 768.86,-1944.25 772.6,-1944.48 769.06,-1940.88 776.34,-1944.7 776.34,-1944.7"/>
<text text-anchor="middle" x="562.3" y="-1937" font-family="Helvetica,sans-Serif" font-size="10.00">index.html</text>
</g>
<!-- blog/infer&#45;type&#45;parameters.html -->
<g id="node4" class="node">
<title>blog/infer&#45;type&#45;parameters.html</title>
<g id="a_node4"><a xlink:href="https://mighdoll-site-origami.netlify.app/blog/infer-type-parameters.html" xlink:title="...&lt;title&gt;Infer Type Parameters Implicitly&lt;...\l">
<polygon fill="white" stroke="#b3b3b3" points="950.49,-1856 743.8,-1856 743.8,-1820 950.49,-1820 950.49,-1856"/>
<text text-anchor="start" x="751.97" y="-1835" font-family="Helvetica,sans-Serif" font-size="10.00">...&lt;title&gt;Infer Type Parameters Implicitly&lt;...</text>
</a>
</g>
</g>
<!-- blog&#45;&gt;blog/infer&#45;type&#45;parameters.html -->
<g id="edge3" class="edge">
<title>blog&#45;&gt;blog/infer&#45;type&#45;parameters.html</title>
<path fill="none" stroke="#999999" d="M281.01,-1572.25C295.39,-1592.89 361.21,-1683.55 438.05,-1728 530.78,-1781.64 650.47,-1809.88 736.21,-1824.24"/>
<polygon fill="#999999" stroke="#999999" points="743.62,-1825.46 735.67,-1827.57 739.92,-1824.85 736.22,-1824.24 736.22,-1824.24 736.22,-1824.24 739.92,-1824.85 736.77,-1820.91 743.62,-1825.46 743.62,-1825.46"/>
<text text-anchor="middle" x="562.3" y="-1817" font-family="Helvetica,sans-Serif" font-size="10.00">infer&#45;type&#45;parameters.html</text>
</g>
<!-- blog/mapped&#45;tuple&#45;types.html -->
<g id="node5" class="node">
<title>blog/mapped&#45;tuple&#45;types.html</title>
<g id="a_node5"><a xlink:href="https://mighdoll-site-origami.netlify.app/blog/mapped-tuple-types.html" xlink:title="...&lt;title&gt;Mapped Tuple Types&lt;/title&gt;\l &lt;m...\l">
<polygon fill="white" stroke="#b3b3b3" points="934.68,-1748 759.61,-1748 759.61,-1712 934.68,-1712 934.68,-1748"/>
<text text-anchor="start" x="767.38" y="-1733" font-family="Helvetica,sans-Serif" font-size="10.00">...&lt;title&gt;Mapped Tuple Types&lt;/title&gt;</text>
<text text-anchor="start" x="767.38" y="-1721" font-family="Helvetica,sans-Serif" font-size="10.00"> &lt;m...</text>
</a>
</g>
</g>
<!-- blog&#45;&gt;blog/mapped&#45;tuple&#45;types.html -->
<g id="edge4" class="edge">
<title>blog&#45;&gt;blog/mapped&#45;tuple&#45;types.html</title>
<path fill="none" stroke="#999999" d="M282.45,-1570.18C300.85,-1579.36 374.34,-1615.3 438.05,-1636 543.6,-1670.3 668.37,-1697.11 751.91,-1713.18"/>
<polygon fill="#999999" stroke="#999999" points="759.36,-1714.6 751.36,-1716.51 755.68,-1713.9 751.99,-1713.19 751.99,-1713.19 751.99,-1713.19 755.68,-1713.9 752.63,-1709.88 759.36,-1714.6 759.36,-1714.6"/>
<text text-anchor="middle" x="562.3" y="-1701" font-family="Helvetica,sans-Serif" font-size="10.00">mapped&#45;tuple&#45;types.html</text>
</g>
<!-- blog/tagged&#45;parser&#45;combinators.html -->
<g id="node6" class="node">
<title>blog/tagged&#45;parser&#45;combinators.html</title>
<g id="a_node6"><a xlink:href="https://mighdoll-site-origami.netlify.app/blog/tagged-parser-combinators.html" xlink:title="...&lt;title&gt;Tagged Parser Combiniators&lt;/title...\l">
<polygon fill="white" stroke="#b3b3b3" points="953.07,-1640 741.22,-1640 741.22,-1604 953.07,-1604 953.07,-1640"/>
<text text-anchor="start" x="749.18" y="-1619" font-family="Helvetica,sans-Serif" font-size="10.00">...&lt;title&gt;Tagged Parser Combiniators&lt;/title...</text>
</a>
</g>
</g>
<!-- blog&#45;&gt;blog/tagged&#45;parser&#45;combinators.html -->
<g id="edge5" class="edge">
<title>blog&#45;&gt;blog/tagged&#45;parser&#45;combinators.html</title>
<path fill="none" stroke="#999999" d="M282.67,-1568.43C320.21,-1572 579.99,-1596.7 733.39,-1611.28"/>
<polygon fill="#999999" stroke="#999999" points="741.07,-1612.01 733.29,-1614.66 737.34,-1611.66 733.6,-1611.3 733.6,-1611.3 733.6,-1611.3 737.34,-1611.66 733.92,-1607.94 741.07,-1612.01 741.07,-1612.01"/>
<text text-anchor="middle" x="562.3" y="-1609" font-family="Helvetica,sans-Serif" font-size="10.00">tagged&#45;parser&#45;combinators.html</text>
</g>
<!-- blog/modern&#45;typescript&#45;intersection.html -->
<g id="node7" class="node">
<title>blog/modern&#45;typescript&#45;intersection.html</title>
<g id="a_node7"><a xlink:href="https://mighdoll-site-origami.netlify.app/blog/modern-typescript-intersection.html" xlink:title="...&lt;title&gt;Modern Union To Intersection&lt;/tit...\l">
<polygon fill="white" stroke="#b3b3b3" points="951.19,-1532 743.1,-1532 743.1,-1496 951.19,-1496 951.19,-1532"/>
<text text-anchor="start" x="751.12" y="-1511" font-family="Helvetica,sans-Serif" font-size="10.00">...&lt;title&gt;Modern Union To Intersection&lt;/tit...</text>
</a>
</g>
</g>
<!-- blog&#45;&gt;blog/modern&#45;typescript&#45;intersection.html -->
<g id="edge6" class="edge">
<title>blog&#45;&gt;blog/modern&#45;typescript&#45;intersection.html</title>
<path fill="none" stroke="#999999" d="M282.67,-1567.57C320.36,-1563.98 582.14,-1539.1 735.29,-1524.54"/>
<polygon fill="#999999" stroke="#999999" points="742.95,-1523.81 735.8,-1527.88 739.22,-1524.16 735.48,-1524.52 735.48,-1524.52 735.48,-1524.52 739.22,-1524.16 735.16,-1521.16 742.95,-1523.81 742.95,-1523.81"/>
<text text-anchor="middle" x="562.3" y="-1555" font-family="Helvetica,sans-Serif" font-size="10.00">modern&#45;typescript&#45;intersection.html</text>
</g>
<!-- blog/typescript&#45;tricks&#45;combining&#45;records.html -->
<g id="node8" class="node">
<title>blog/typescript&#45;tricks&#45;combining&#45;records.html</title>
<g id="a_node8"><a xlink:href="https://mighdoll-site-origami.netlify.app/blog/typescript-tricks-combining-records.html" xlink:title="...&lt;title&gt;TypeScript Tricks for Combining R...\l">
<polygon fill="white" stroke="#b3b3b3" points="953.32,-1424 740.97,-1424 740.97,-1388 953.32,-1388 953.32,-1424"/>
<text text-anchor="start" x="749.06" y="-1403" font-family="Helvetica,sans-Serif" font-size="10.00">...&lt;title&gt;TypeScript Tricks for Combining R...</text>
</a>
</g>
</g>
<!-- blog&#45;&gt;blog/typescript&#45;tricks&#45;combining&#45;records.html -->
<g id="edge7" class="edge">
<title>blog&#45;&gt;blog/typescript&#45;tricks&#45;combining&#45;records.html</title>
<path fill="none" stroke="#999999" d="M282.2,-1565.9C300.15,-1556.76 373.94,-1519.94 438.05,-1499 536.95,-1466.7 652.88,-1441.44 735.85,-1425.45"/>
<polygon fill="#999999" stroke="#999999" points="743.27,-1424.02 736.54,-1428.75 739.59,-1424.73 735.91,-1425.44 735.91,-1425.44 735.91,-1425.44 739.59,-1424.73 735.27,-1422.12 743.27,-1424.02 743.27,-1424.02"/>
<text text-anchor="middle" x="562.3" y="-1502" font-family="Helvetica,sans-Serif" font-size="10.00">typescript&#45;tricks&#45;combining&#45;records.html</text>
</g>
<!-- blog/reactive&#45;webgpu.html -->
<g id="node9" class="node">
<title>blog/reactive&#45;webgpu.html</title>
<g id="a_node9"><a xlink:href="https://mighdoll-site-origami.netlify.app/blog/reactive-webgpu.html" xlink:title="...&lt;title&gt;Reactive WebGPU&lt;/title&gt;\l &lt;meta...\l">
<polygon fill="white" stroke="#b3b3b3" points="929.66,-1316 764.63,-1316 764.63,-1280 929.66,-1280 929.66,-1316"/>
<text text-anchor="start" x="772.39" y="-1301" font-family="Helvetica,sans-Serif" font-size="10.00">...&lt;title&gt;Reactive WebGPU&lt;/title&gt;</text>
<text text-anchor="start" x="772.39" y="-1289" font-family="Helvetica,sans-Serif" font-size="10.00"> &lt;meta...</text>
</a>
</g>
</g>
<!-- blog&#45;&gt;blog/reactive&#45;webgpu.html -->
<g id="edge8" class="edge">
<title>blog&#45;&gt;blog/reactive&#45;webgpu.html</title>
<path fill="none" stroke="#999999" d="M280.99,-1563.69C295.28,-1542.75 360.77,-1450.79 438.05,-1406 538.48,-1347.8 670.85,-1320.27 757.19,-1307.75"/>
<polygon fill="#999999" stroke="#999999" points="764.63,-1306.69 757.68,-1311.09 760.91,-1307.22 757.2,-1307.74 757.2,-1307.74 757.2,-1307.74 760.91,-1307.22 756.72,-1304.4 764.63,-1306.69 764.63,-1306.69"/>
<text text-anchor="middle" x="562.3" y="-1409" font-family="Helvetica,sans-Serif" font-size="10.00">reactive&#45;webgpu.html</text>
</g>
<!-- open&#45;graph/blog -->
<g id="node12" class="node">
<title>open&#45;graph/blog</title>
<g id="a_node12"><a xlink:href="https://mighdoll-site-origami.netlify.app/open-graph/blog">
<ellipse fill="white" stroke="#666666" cx="847.15" cy="-1202" rx="5.5" ry="5.5"/>
</a>
</g>
</g>
<!-- open&#45;graph&#45;&gt;open&#45;graph/blog -->
<g id="edge11" class="edge">
<title>open&#45;graph&#45;&gt;open&#45;graph/blog</title>
<path fill="none" stroke="#999999" d="M282.52,-1078.43C301.2,-1084.43 375.68,-1108.02 438.05,-1123 593.29,-1160.27 784.99,-1192.12 834.2,-1200.09"/>
<polygon fill="#999999" stroke="#999999" points="841.69,-1201.29 833.75,-1203.43 837.98,-1200.7 834.28,-1200.1 834.28,-1200.1 834.28,-1200.1 837.98,-1200.7 834.82,-1196.77 841.69,-1201.29 841.69,-1201.29"/>
<text text-anchor="middle" x="562.3" y="-1176" font-family="Helvetica,sans-Serif" font-size="10.00">blog</text>
</g>
<!-- open&#45;graph/blog/infer&#45;type&#45;parameters.png -->
<g id="node13" class="node">
<title>open&#45;graph/blog/infer&#45;type&#45;parameters.png</title>
<g id="a_node13"><a xlink:href="https://mighdoll-site-origami.netlify.app/open-graph/blog/infer-type-parameters.png" xlink:title="[binary data]">
<polygon fill="white" stroke="#b3b3b3" points="1307.29,-1490 1236.22,-1490 1236.22,-1454 1307.29,-1454 1307.29,-1490"/>
<text text-anchor="middle" x="1271.76" y="-1469" font-family="Helvetica,sans-Serif" font-size="10.00">[binary data]</text>
</a>
</g>
</g>
<!-- open&#45;graph/blog&#45;&gt;open&#45;graph/blog/infer&#45;type&#45;parameters.png -->
<g id="edge12" class="edge">
<title>open&#45;graph/blog&#45;&gt;open&#45;graph/blog/infer&#45;type&#45;parameters.png</title>
<path fill="none" stroke="#999999" d="M852.83,-1202.59C868.98,-1204.85 923.08,-1214.4 953.74,-1244 996.69,-1285.47 964.81,-1325.5 1007.74,-1367 1070.15,-1427.34 1171.6,-1454.39 1228.53,-1465.37"/>
<polygon fill="#999999" stroke="#999999" points="1235.93,-1466.76 1227.93,-1468.7 1232.24,-1466.07 1228.56,-1465.38 1228.56,-1465.38 1228.56,-1465.38 1232.24,-1466.07 1229.18,-1462.06 1235.93,-1466.76 1235.93,-1466.76"/>
<text text-anchor="middle" x="1094.99" y="-1457" font-family="Helvetica,sans-Serif" font-size="10.00">infer&#45;type&#45;parameters.png</text>
</g>
<!-- open&#45;graph/blog/mapped&#45;tuple&#45;types.png -->
<g id="node14" class="node">
<title>open&#45;graph/blog/mapped&#45;tuple&#45;types.png</title>
<g id="a_node14"><a xlink:href="https://mighdoll-site-origami.netlify.app/open-graph/blog/mapped-tuple-types.png" xlink:title="[binary data]">
<polygon fill="white" stroke="#b3b3b3" points="1307.29,-1382 1236.22,-1382 1236.22,-1346 1307.29,-1346 1307.29,-1382"/>
<text text-anchor="middle" x="1271.76" y="-1361" font-family="Helvetica,sans-Serif" font-size="10.00">[binary data]</text>
</a>
</g>
</g>
<!-- open&#45;graph/blog&#45;&gt;open&#45;graph/blog/mapped&#45;tuple&#45;types.png -->
<g id="edge13" class="edge">
<title>open&#45;graph/blog&#45;&gt;open&#45;graph/blog/mapped&#45;tuple&#45;types.png</title>
<path fill="none" stroke="#999999" d="M852.66,-1203.56C867.43,-1208.71 915.59,-1225.91 953.74,-1244 978.54,-1255.76 982.65,-1262.85 1007.74,-1274 1083.39,-1307.64 1175.77,-1336.61 1228.48,-1352.07"/>
<polygon fill="#999999" stroke="#999999" points="1235.96,-1354.25 1227.82,-1355.39 1232.36,-1353.2 1228.76,-1352.15 1228.76,-1352.15 1228.76,-1352.15 1232.36,-1353.2 1229.71,-1348.91 1235.96,-1354.25 1235.96,-1354.25"/>
<text text-anchor="middle" x="1094.99" y="-1340" font-family="Helvetica,sans-Serif" font-size="10.00">mapped&#45;tuple&#45;types.png</text>
</g>
<!-- open&#45;graph/blog/tagged&#45;parser&#45;combinators.png -->
<g id="node15" class="node">
<title>open&#45;graph/blog/tagged&#45;parser&#45;combinators.png</title>
<g id="a_node15"><a xlink:href="https://mighdoll-site-origami.netlify.app/open-graph/blog/tagged-parser-combinators.png" xlink:title="[binary data]">
<polygon fill="white" stroke="#b3b3b3" points="1307.29,-1274 1236.22,-1274 1236.22,-1238 1307.29,-1238 1307.29,-1274"/>
<text text-anchor="middle" x="1271.76" y="-1253" font-family="Helvetica,sans-Serif" font-size="10.00">[binary data]</text>
</a>
</g>
</g>
<!-- open&#45;graph/blog&#45;&gt;open&#45;graph/blog/tagged&#45;parser&#45;combinators.png -->
<g id="edge14" class="edge">
<title>open&#45;graph/blog&#45;&gt;open&#45;graph/blog/tagged&#45;parser&#45;combinators.png</title>
<path fill="none" stroke="#999999" d="M852.89,-1202.61C889.62,-1207.3 1129.74,-1237.98 1228.47,-1250.6"/>
<polygon fill="#999999" stroke="#999999" points="1236.17,-1251.58 1228.3,-1253.98 1232.45,-1251.11 1228.73,-1250.63 1228.73,-1250.63 1228.73,-1250.63 1232.45,-1251.11 1229.16,-1247.28 1236.17,-1251.58 1236.17,-1251.58"/>
<text text-anchor="middle" x="1094.99" y="-1247" font-family="Helvetica,sans-Serif" font-size="10.00">tagged&#45;parser&#45;combinators.png</text>
</g>
<!-- open&#45;graph/blog/modern&#45;typescript&#45;intersection.png -->
<g id="node16" class="node">
<title>open&#45;graph/blog/modern&#45;typescript&#45;intersection.png</title>
<g id="a_node16"><a xlink:href="https://mighdoll-site-origami.netlify.app/open-graph/blog/modern-typescript-intersection.png" xlink:title="[binary data]">
<polygon fill="white" stroke="#b3b3b3" points="1307.29,-1166 1236.22,-1166 1236.22,-1130 1307.29,-1130 1307.29,-1166"/>
<text text-anchor="middle" x="1271.76" y="-1145" font-family="Helvetica,sans-Serif" font-size="10.00">[binary data]</text>
</a>
</g>
</g>
<!-- open&#45;graph/blog&#45;&gt;open&#45;graph/blog/modern&#45;typescript&#45;intersection.png -->
<g id="edge15" class="edge">
<title>open&#45;graph/blog&#45;&gt;open&#45;graph/blog/modern&#45;typescript&#45;intersection.png</title>
<path fill="none" stroke="#999999" d="M852.89,-1201.39C889.62,-1196.7 1129.74,-1166.02 1228.47,-1153.4"/>
<polygon fill="#999999" stroke="#999999" points="1236.17,-1152.42 1229.16,-1156.72 1232.45,-1152.89 1228.73,-1153.37 1228.73,-1153.37 1228.73,-1153.37 1232.45,-1152.89 1228.3,-1150.02 1236.17,-1152.42 1236.17,-1152.42"/>
<text text-anchor="middle" x="1094.99" y="-1184" font-family="Helvetica,sans-Serif" font-size="10.00">modern&#45;typescript&#45;intersection.png</text>
</g>
<!-- open&#45;graph/blog/typescript&#45;tricks&#45;combining&#45;records.png -->
<g id="node17" class="node">
<title>open&#45;graph/blog/typescript&#45;tricks&#45;combining&#45;records.png</title>
<g id="a_node17"><a xlink:href="https://mighdoll-site-origami.netlify.app/open-graph/blog/typescript-tricks-combining-records.png" xlink:title="[binary data]">
<polygon fill="white" stroke="#b3b3b3" points="1307.29,-1058 1236.22,-1058 1236.22,-1022 1307.29,-1022 1307.29,-1058"/>
<text text-anchor="middle" x="1271.76" y="-1037" font-family="Helvetica,sans-Serif" font-size="10.00">[binary data]</text>
</a>
</g>
</g>
<!-- open&#45;graph/blog&#45;&gt;open&#45;graph/blog/typescript&#45;tricks&#45;combining&#45;records.png -->
<g id="edge16" class="edge">
<title>open&#45;graph/blog&#45;&gt;open&#45;graph/blog/typescript&#45;tricks&#45;combining&#45;records.png</title>
<path fill="none" stroke="#999999" d="M852.67,-1200.46C867.47,-1195.37 915.72,-1178.36 953.74,-1160 978.66,-1147.97 982.51,-1140.38 1007.74,-1129 1083.13,-1095 1175.6,-1066.6 1228.39,-1051.56"/>
<polygon fill="#999999" stroke="#999999" points="1235.89,-1049.44 1229.59,-1054.73 1232.28,-1050.46 1228.67,-1051.48 1228.67,-1051.48 1228.67,-1051.48 1232.28,-1050.46 1227.75,-1048.24 1235.89,-1049.44 1235.89,-1049.44"/>
<text text-anchor="middle" x="1094.99" y="-1132" font-family="Helvetica,sans-Serif" font-size="10.00">typescript&#45;tricks&#45;combining&#45;records.png</text>
</g>
<!-- open&#45;graph/blog/reactive&#45;webgpu.png -->
<g id="node18" class="node">
<title>open&#45;graph/blog/reactive&#45;webgpu.png</title>
<g id="a_node18"><a xlink:href="https://mighdoll-site-origami.netlify.app/open-graph/blog/reactive-webgpu.png" xlink:title="[binary data]">
<polygon fill="white" stroke="#b3b3b3" points="1307.29,-950 1236.22,-950 1236.22,-914 1307.29,-914 1307.29,-950"/>
<text text-anchor="middle" x="1271.76" y="-929" font-family="Helvetica,sans-Serif" font-size="10.00">[binary data]</text>
</a>
</g>
</g>
<!-- open&#45;graph/blog&#45;&gt;open&#45;graph/blog/reactive&#45;webgpu.png -->
<g id="edge17" class="edge">
<title>open&#45;graph/blog&#45;&gt;open&#45;graph/blog/reactive&#45;webgpu.png</title>
<path fill="none" stroke="#999999" d="M852.83,-1201.42C869.01,-1199.18 923.17,-1189.69 953.74,-1160 997.15,-1117.84 964.21,-1077.05 1007.74,-1035 1070.01,-974.84 1171.51,-948.67 1228.49,-938.22"/>
<polygon fill="#999999" stroke="#999999" points="1235.89,-936.9 1229.1,-941.54 1232.2,-937.56 1228.51,-938.22 1228.51,-938.22 1228.51,-938.22 1232.2,-937.56 1227.92,-934.89 1235.89,-936.9 1235.89,-936.9"/>
<text text-anchor="middle" x="1094.99" y="-1038" font-family="Helvetica,sans-Serif" font-size="10.00">reactive&#45;webgpu.png</text>
</g>
<!-- fonts/Inter&#45;VariableFont_slnt,wght.woff2 -->
<g id="node21" class="node">
<title>fonts/Inter&#45;VariableFont_slnt,wght.woff2</title>
<g id="a_node21"><a xlink:href="https://mighdoll-site-origami.netlify.app/fonts/Inter-VariableFont_slnt,wght.woff2" xlink:title="[binary data]">
<polygon fill="white" stroke="#b3b3b3" points="882.68,-1124 811.61,-1124 811.61,-1088 882.68,-1088 882.68,-1124"/>
<text text-anchor="middle" x="847.15" y="-1103" font-family="Helvetica,sans-Serif" font-size="10.00">[binary data]</text>
</a>
</g>
</g>
<!-- fonts&#45;&gt;fonts/Inter&#45;VariableFont_slnt,wght.woff2 -->
<g id="edge20" class="edge">
<title>fonts&#45;&gt;fonts/Inter&#45;VariableFont_slnt,wght.woff2</title>
<path fill="none" stroke="#999999" d="M282.54,-885.89C297.9,-889.14 349.73,-901.53 384.05,-927 415.04,-950 405.83,-973.77 438.05,-995 555.42,-1072.33 725.44,-1096.08 803.75,-1103.14"/>
<polygon fill="#999999" stroke="#999999" points="811.49,-1103.81 803.72,-1106.52 807.75,-1103.48 804.02,-1103.16 804.02,-1103.16 804.02,-1103.16 807.75,-1103.48 804.31,-1099.8 811.49,-1103.81 811.49,-1103.81"/>
<text text-anchor="middle" x="562.3" y="-1088" font-family="Helvetica,sans-Serif" font-size="10.00">Inter&#45;VariableFont_slnt,wght.woff2</text>
</g>
<!-- fonts/Newsreader&#45;Latin.woff2 -->
<g id="node22" class="node">
<title>fonts/Newsreader&#45;Latin.woff2</title>
<g id="a_node22"><a xlink:href="https://mighdoll-site-origami.netlify.app/fonts/Newsreader-Latin.woff2" xlink:title="[binary data]">
<polygon fill="white" stroke="#b3b3b3" points="882.68,-1016 811.61,-1016 811.61,-980 882.68,-980 882.68,-1016"/>
<text text-anchor="middle" x="847.15" y="-995" font-family="Helvetica,sans-Serif" font-size="10.00">[binary data]</text>
</a>
</g>
</g>
<!-- fonts&#45;&gt;fonts/Newsreader&#45;Latin.woff2 -->
<g id="edge21" class="edge">
<title>fonts&#45;&gt;fonts/Newsreader&#45;Latin.woff2</title>
<path fill="none" stroke="#999999" d="M282.55,-885.93C301.38,-889.89 376.34,-905.59 438.05,-918 571.39,-944.82 729.48,-975.49 803.68,-989.82"/>
<polygon fill="#999999" stroke="#999999" points="811.46,-991.32 803.45,-993.21 807.77,-990.61 804.09,-989.9 804.09,-989.9 804.09,-989.9 807.77,-990.61 804.73,-986.58 811.46,-991.32 811.46,-991.32"/>
<text text-anchor="middle" x="562.3" y="-968" font-family="Helvetica,sans-Serif" font-size="10.00">Newsreader&#45;Latin.woff2</text>
</g>
<!-- fonts/Newsreader&#45;VariableFont_opsz,wght.woff2 -->
<g id="node23" class="node">
<title>fonts/Newsreader&#45;VariableFont_opsz,wght.woff2</title>
<g id="a_node23"><a xlink:href="https://mighdoll-site-origami.netlify.app/fonts/Newsreader-VariableFont_opsz,wght.woff2" xlink:title="[binary data]">
<polygon fill="white" stroke="#b3b3b3" points="882.68,-908 811.61,-908 811.61,-872 882.68,-872 882.68,-908"/>
<text text-anchor="middle" x="847.15" y="-887" font-family="Helvetica,sans-Serif" font-size="10.00">[binary data]</text>
</a>
</g>
</g>
<!-- fonts&#45;&gt;fonts/Newsreader&#45;VariableFont_opsz,wght.woff2 -->
<g id="edge22" class="edge">
<title>fonts&#45;&gt;fonts/Newsreader&#45;VariableFont_opsz,wght.woff2</title>
<path fill="none" stroke="#999999" d="M282.67,-885.04C326.91,-885.43 679.78,-888.54 803.48,-889.62"/>
<polygon fill="#999999" stroke="#999999" points="811.29,-889.69 803.76,-893 807.54,-889.66 803.79,-889.63 803.79,-889.63 803.79,-889.63 807.54,-889.66 803.82,-886.25 811.29,-889.69 811.29,-889.69"/>
<text text-anchor="middle" x="562.3" y="-891" font-family="Helvetica,sans-Serif" font-size="10.00">Newsreader&#45;VariableFont_opsz,wght.woff2</text>
</g>
<!-- images/blog&#45;modern&#45;intersection.png -->
<g id="node25" class="node">
<title>images/blog&#45;modern&#45;intersection.png</title>
<g id="a_node25"><a xlink:href="https://mighdoll-site-origami.netlify.app/images/blog-modern-intersection.png" xlink:title="[binary data]">
<polygon fill="white" stroke="#b3b3b3" points="882.68,-800 811.61,-800 811.61,-764 882.68,-764 882.68,-800"/>
<text text-anchor="middle" x="847.15" y="-779" font-family="Helvetica,sans-Serif" font-size="10.00">[binary data]</text>
</a>
</g>
</g>
<!-- images&#45;&gt;images/blog&#45;modern&#45;intersection.png -->
<g id="edge24" class="edge">
<title>images&#45;&gt;images/blog&#45;modern&#45;intersection.png</title>
<path fill="none" stroke="#999999" d="M282.67,-782C326.91,-782 679.78,-782 803.48,-782"/>
<polygon fill="#999999" stroke="#999999" points="811.29,-782 803.79,-785.38 807.54,-782 803.79,-782 803.79,-782 803.79,-782 807.54,-782 803.79,-778.63 811.29,-782 811.29,-782"/>
<text text-anchor="middle" x="562.3" y="-785" font-family="Helvetica,sans-Serif" font-size="10.00">blog&#45;modern&#45;intersection.png</text>
</g>
<!-- images/blog&#45;reactivity&#45;webgpu.png -->
<g id="node26" class="node">
<title>images/blog&#45;reactivity&#45;webgpu.png</title>
<g id="a_node26"><a xlink:href="https://mighdoll-site-origami.netlify.app/images/blog-reactivity-webgpu.png" xlink:title="[binary data]">
<polygon fill="white" stroke="#b3b3b3" points="882.68,-692 811.61,-692 811.61,-656 882.68,-656 882.68,-692"/>
<text text-anchor="middle" x="847.15" y="-671" font-family="Helvetica,sans-Serif" font-size="10.00">[binary data]</text>
</a>
</g>
</g>
<!-- images&#45;&gt;images/blog&#45;reactivity&#45;webgpu.png -->
<g id="edge25" class="edge">
<title>images&#45;&gt;images/blog&#45;reactivity&#45;webgpu.png</title>
<path fill="none" stroke="#999999" d="M282.67,-781.13C326.95,-772.71 680.49,-705.5 803.85,-682.04"/>
<polygon fill="#999999" stroke="#999999" points="811.29,-680.63 804.56,-685.34 807.61,-681.33 803.93,-682.03 803.93,-682.03 803.93,-682.03 807.61,-681.33 803.3,-678.71 811.29,-680.63 811.29,-680.63"/>
<text text-anchor="middle" x="562.3" y="-753" font-family="Helvetica,sans-Serif" font-size="10.00">blog&#45;reactivity&#45;webgpu.png</text>
</g>
<!-- images/blog&#45;records&#45;cropped.png -->
<g id="node27" class="node">
<title>images/blog&#45;records&#45;cropped.png</title>
<g id="a_node27"><a xlink:href="https://mighdoll-site-origami.netlify.app/images/blog-records-cropped.png" xlink:title="[binary data]">
<polygon fill="white" stroke="#b3b3b3" points="882.68,-584 811.61,-584 811.61,-548 882.68,-548 882.68,-584"/>
<text text-anchor="middle" x="847.15" y="-563" font-family="Helvetica,sans-Serif" font-size="10.00">[binary data]</text>
</a>
</g>
</g>
<!-- images&#45;&gt;images/blog&#45;records&#45;cropped.png -->
<g id="edge26" class="edge">
<title>images&#45;&gt;images/blog&#45;records&#45;cropped.png</title>
<path fill="none" stroke="#999999" d="M282.95,-780.99C298.77,-777.51 349.78,-764.86 384.05,-740 414.46,-717.95 406.42,-695.24 438.05,-675 556.29,-599.33 725.88,-575.88 803.92,-568.86"/>
<polygon fill="#999999" stroke="#999999" points="811.63,-568.2 804.45,-572.21 807.89,-568.52 804.15,-568.84 804.15,-568.84 804.15,-568.84 807.89,-568.52 803.86,-565.48 811.63,-568.2 811.63,-568.2"/>
<text text-anchor="middle" x="562.3" y="-678" font-family="Helvetica,sans-Serif" font-size="10.00">blog&#45;records&#45;cropped.png</text>
</g>
<!-- styles/diagram.css -->
<g id="node31" class="node">
<title>styles/diagram.css</title>
<g id="a_node31"><a xlink:href="https://mighdoll-site-origami.netlify.app/styles/diagram.css" xlink:title=".diagram {\l font&#45;family: var(&#45;&#45;code&#45;fon...\l">
<polygon fill="white" stroke="#b3b3b3" points="917.74,-476 776.55,-476 776.55,-440 917.74,-440 917.74,-476"/>
<text text-anchor="start" x="784.35" y="-461" font-family="Helvetica,sans-Serif" font-size="10.00">.diagram {</text>
<text text-anchor="start" x="784.35" y="-449" font-family="Helvetica,sans-Serif" font-size="10.00"> font&#45;family: var(&#45;&#45;code&#45;fon...</text>
</a>
</g>
</g>
<!-- styles&#45;&gt;styles/diagram.css -->
<g id="edge30" class="edge">
<title>styles&#45;&gt;styles/diagram.css</title>
<path fill="none" stroke="#999999" d="M282.67,-402.45C323.29,-406.45 624.17,-436.12 768.86,-450.38"/>
<polygon fill="#999999" stroke="#999999" points="776.48,-451.13 768.68,-453.75 772.74,-450.76 769.01,-450.4 769.01,-450.4 769.01,-450.4 772.74,-450.76 769.34,-447.04 776.48,-451.13 776.48,-451.13"/>
<text text-anchor="middle" x="562.3" y="-444" font-family="Helvetica,sans-Serif" font-size="10.00">diagram.css</text>
</g>
<!-- styles/global.css -->
<g id="node32" class="node">
<title>styles/global.css</title>
<g id="a_node32"><a xlink:href="https://mighdoll-site-origami.netlify.app/styles/global.css" xlink:title=":root {\l &#45;&#45;side&#45;margin: calc(15vw);\l &#45;...\l">
<polygon fill="white" stroke="#b3b3b3" points="913.95,-368 780.34,-368 780.34,-324 913.95,-324 913.95,-368"/>
<text text-anchor="start" x="788.24" y="-355" font-family="Helvetica,sans-Serif" font-size="10.00">:root {</text>
<text text-anchor="start" x="788.24" y="-343" font-family="Helvetica,sans-Serif" font-size="10.00"> &#45;&#45;side&#45;margin: calc(15vw);</text>
<text text-anchor="start" x="788.24" y="-331" font-family="Helvetica,sans-Serif" font-size="10.00"> &#45;...</text>
</a>
</g>
</g>
<!-- styles&#45;&gt;styles/global.css -->
<g id="edge31" class="edge">
<title>styles&#45;&gt;styles/global.css</title>
<path fill="none" stroke="#999999" d="M282.67,-401.55C323.65,-397.51 629.54,-367.35 772.68,-353.24"/>
<polygon fill="#999999" stroke="#999999" points="780.21,-352.5 773.07,-356.6 776.48,-352.87 772.74,-353.24 772.74,-353.24 772.74,-353.24 776.48,-352.87 772.41,-349.88 780.21,-352.5 780.21,-352.5"/>
<text text-anchor="middle" x="562.3" y="-388" font-family="Helvetica,sans-Serif" font-size="10.00">global.css</text>
</g>
<!-- styles/titled.css -->
<g id="node33" class="node">
<title>styles/titled.css</title>
<g id="a_node33"><a xlink:href="https://mighdoll-site-origami.netlify.app/styles/titled.css" xlink:title=".title {\l font&#45;family: var(&#45;&#45;serif&#45;font...\l">
<polygon fill="white" stroke="#b3b3b3" points="917.72,-252 776.57,-252 776.57,-216 917.72,-216 917.72,-252"/>
<text text-anchor="start" x="784.36" y="-237" font-family="Helvetica,sans-Serif" font-size="10.00">.title {</text>
<text text-anchor="start" x="784.36" y="-225" font-family="Helvetica,sans-Serif" font-size="10.00"> font&#45;family: var(&#45;&#45;serif&#45;font...</text>
</a>
</g>
</g>
<!-- styles&#45;&gt;styles/titled.css -->
<g id="edge32" class="edge">
<title>styles&#45;&gt;styles/titled.css</title>
<path fill="none" stroke="#999999" d="M282.2,-399.88C300.16,-390.67 373.98,-353.53 438.05,-332 551.03,-294.05 686.23,-264.59 769.14,-248.26"/>
<polygon fill="#999999" stroke="#999999" points="776.5,-246.82 769.79,-251.57 772.82,-247.54 769.14,-248.26 769.14,-248.26 769.14,-248.26 772.82,-247.54 768.49,-244.95 776.5,-246.82 776.5,-246.82"/>
<text text-anchor="middle" x="562.3" y="-335" font-family="Helvetica,sans-Serif" font-size="10.00">titled.css</text>
</g>
<!-- svg/dark_mode_24dp_FILL0_wght500_GRAD0_opsz24.svg -->
<g id="node35" class="node">
<title>svg/dark_mode_24dp_FILL0_wght500_GRAD0_opsz24.svg</title>
<g id="a_node35"><a xlink:href="https://mighdoll-site-origami.netlify.app/svg/dark_mode_24dp_FILL0_wght500_GRAD0_opsz24.svg" xlink:title="&lt;svg xmlns=&quot;http://www.w3.org/2000/svg&quot; ...\l">
<polygon fill="white" stroke="#b3b3b3" points="953.83,-144 740.46,-144 740.46,-108 953.83,-108 953.83,-144"/>
<text text-anchor="start" x="748.55" y="-123" font-family="Helvetica,sans-Serif" font-size="10.00">&lt;svg xmlns=&quot;http://www.w3.org/2000/svg&quot; ...</text>
</a>
</g>
</g>
<!-- svg&#45;&gt;svg/dark_mode_24dp_FILL0_wght500_GRAD0_opsz24.svg -->
<g id="edge34" class="edge">
<title>svg&#45;&gt;svg/dark_mode_24dp_FILL0_wght500_GRAD0_opsz24.svg</title>
<path fill="none" stroke="#999999" d="M282.65,-193.2C308.52,-182.94 435.95,-132.42 438.05,-132 536.04,-112.65 649.84,-112.79 732.33,-116.82"/>
<polygon fill="#999999" stroke="#999999" points="740.22,-117.23 732.55,-120.21 736.47,-117.03 732.73,-116.84 732.73,-116.84 732.73,-116.84 736.47,-117.03 732.9,-113.47 740.22,-117.23 740.22,-117.23"/>
<text text-anchor="middle" x="562.3" y="-135" font-family="Helvetica,sans-Serif" font-size="10.00">dark_mode_24dp_FILL0_wght500_GRAD0_opsz24.svg</text>
</g>
<!-- svg/light_mode_24dp_FILL0_wght500_GRAD0_opsz24.svg -->
<g id="node36" class="node">
<title>svg/light_mode_24dp_FILL0_wght500_GRAD0_opsz24.svg</title>
<g id="a_node36"><a xlink:href="https://mighdoll-site-origami.netlify.app/svg/light_mode_24dp_FILL0_wght500_GRAD0_opsz24.svg" xlink:title="&lt;svg xmlns=&quot;http://www.w3.org/2000/svg&quot; ...\l">
<polygon fill="white" stroke="#b3b3b3" points="953.83,-36 740.46,-36 740.46,0 953.83,0 953.83,-36"/>
<text text-anchor="start" x="748.55" y="-15" font-family="Helvetica,sans-Serif" font-size="10.00">&lt;svg xmlns=&quot;http://www.w3.org/2000/svg&quot; ...</text>
</a>
</g>
</g>
<!-- svg&#45;&gt;svg/light_mode_24dp_FILL0_wght500_GRAD0_opsz24.svg -->
<g id="edge35" class="edge">
<title>svg&#45;&gt;svg/light_mode_24dp_FILL0_wght500_GRAD0_opsz24.svg</title>
<path fill="none" stroke="#999999" d="M282.55,-194.12C297.93,-190.9 349.82,-178.59 384.05,-153 415.24,-129.68 404.52,-103.81 438.05,-84 527.43,-31.21 646.08,-17 732.39,-14.63"/>
<polygon fill="#999999" stroke="#999999" points="740.12,-14.45 732.7,-18 736.37,-14.54 732.62,-14.63 732.62,-14.63 732.62,-14.63 736.37,-14.54 732.54,-11.25 740.12,-14.45 740.12,-14.45"/>
<text text-anchor="middle" x="562.3" y="-87" font-family="Helvetica,sans-Serif" font-size="10.00">light_mode_24dp_FILL0_wght500_GRAD0_opsz24.svg</text>
</g>
</g>
</svg>
